<?xml version="1.0" encoding="UTF-8"?>
<svg id="Layer_1" xmlns="http://www.w3.org/2000/svg" version="1.1" viewBox="0 0 91 91">
  <!-- Generator: Adobe Illustrator 29.0.1, SVG Export Plug-In . SVG Version: 2.1.0 Build 192)  -->
  <defs>
    <style>
      .st0 {
        fill: #fff;
        stroke: #000;
        stroke-linecap: round;
        stroke-linejoin: round;
        stroke-width: 5px;
      }
    </style>
  </defs>
  <path id="Union" class="st0" d="M71.3,4.8c-8.9-1-18.6-1.8-27.5-1.8s-18.6.8-27.5,1.8c-6.1.7-10.9,5.5-11.6,11.6-1,8.8-1.7,18.5-1.7,27.4s.8,18.6,1.7,27.4c.7,6.1,5.5,10.9,11.6,11.6,8.9,1,18.6,1.8,27.5,1.8s16.2-.6,24.1-1.4l20.1,4.8-4.7-21.5c.7-7.5,1.3-15.4,1.3-22.7s-.8-18.6-1.8-27.4c-.7-6.1-5.5-10.9-11.6-11.6Z"/>
  <g>
    <path d="M26.6,27.4h1.4v7.2h-1.3v-5.3l-2.7,3.2-2.7-3.2v5.3h-1.3v-7.2h1.4l2.6,3.1,2.6-3.1Z"/>
    <path d="M35,30.2v4.4h-4.5c-.8,0-1.4-.6-1.4-1.4v-2.2h4.6v-.9s0,0,0,0h-4.5v-1.3h4.5c.8,0,1.4.6,1.4,1.4ZM33.7,32.4h-3.3v.9s0,0,0,0h3.2v-.9Z"/>
    <path d="M41.7,26.9v7.7h-4.5c-.8,0-1.4-.6-1.4-1.4v-3c0-.8.6-1.4,1.4-1.4h3.2v-1.9h1.3ZM40.3,33.3s0,0,0,0v-3s0,0,0,0h-3.1s0,0,0,0v3s0,0,0,0h3.1Z"/>
    <path d="M48.4,30.2v2.2h-4.6v.9s0,0,0,0h4.5v1.3h-4.5c-.8,0-1.4-.6-1.4-1.4v-3c0-.8.6-1.4,1.4-1.4h3.1c.8,0,1.4.6,1.4,1.4ZM47.1,31.1v-.9s0,0,0,0h-3.1s0,0,0,0v.9h3.3Z"/>
    <path d="M58.4,30.2v3c0,.8-.6,1.4-1.4,1.4h-4.5v-7.7h1.3v1.9h3.2c.8,0,1.4.6,1.4,1.4ZM57.1,30.2s0,0,0,0h-3.1s0,0,0,0v3s0,0,0,0h3.1s0,0,0,0v-3Z"/>
    <path d="M63.6,36.9h-3.5v-1.3h3.5s0,0,0,0v-.9h-3.2c-.8,0-1.4-.6-1.4-1.4v-4.4h1.3v4.4s0,0,0,0h3.1s0,0,0,0v-4.4h1.3v6.7c0,.8-.6,1.4-1.4,1.4Z"/>
    <path d="M67.4,30.1h-1.3v-1.3h1.3v1.3ZM67.4,33.3v1.3h-1.3v-1.3h1.3Z"/>
    <path d="M31.9,39.4h1.4v7.2h-1.3v-5.3l-2.7,3.2-2.7-3.2v5.3h-1.3v-7.2h1.4l2.6,3.1,2.6-3.1Z"/>
    <path d="M40.4,42.2v4.4h-4.5c-.8,0-1.4-.6-1.4-1.4v-2.2h4.6v-.9s0,0,0,0h-4.5v-1.3h4.5c.8,0,1.4.6,1.4,1.4ZM39.1,44.4h-3.3v.9s0,0,0,0h3.2v-.9Z"/>
    <path d="M45.9,40.8v1.3h-3.2s0,0,0,0v4.4h-1.3v-4.4c0-.8.6-1.4,1.4-1.4h3.2Z"/>
    <path d="M47.9,38.9v1.3h-1.3v-1.3h1.3ZM46.6,40.8h1.3v5.8h-1.3v-5.8Z"/>
    <path d="M54.8,42.2v4.4h-1.3v-4.4s0,0,0,0h-3.1s0,0,0,0v4.4h-1.3v-5.8h4.5c.8,0,1.4.6,1.4,1.4Z"/>
    <path d="M61.7,42.2v4.4h-4.5c-.8,0-1.4-.6-1.4-1.4v-2.2h4.6v-.9s0,0,0,0h-4.5v-1.3h4.5c.8,0,1.4.6,1.4,1.4ZM60.4,44.4h-3.3v.9s0,0,0,0h3.2v-.9Z"/>
    <path d="M18.6,51.4h1.4v7.2h-1.3v-5.3l-2.7,3.2-2.7-3.2v5.3h-1.3v-7.2h1.4l2.6,3.1,2.6-3.1Z"/>
    <path d="M22.5,50.9v1.3h-1.3v-1.3h1.3ZM21.2,52.8h1.3v5.8h-1.3v-5.8Z"/>
    <path d="M29.4,54.2v4.4h-1.3v-4.4s0,0,0,0h-3.1s0,0,0,0v4.4h-1.3v-5.8h4.5c.8,0,1.4.6,1.4,1.4Z"/>
    <path d="M34.8,60.9h-3.5v-1.3h3.5s0,0,0,0v-.9h-3.2c-.8,0-1.4-.6-1.4-1.4v-3c0-.8.6-1.4,1.4-1.4h3.1c.8,0,1.4.6,1.4,1.4v5.3c0,.8-.6,1.4-1.4,1.4ZM34.8,57.3s0,0,0,0v-3s0,0,0,0h-3.1s0,0,0,0v3s0,0,0,0h3.1Z"/>
    <path d="M43.1,54.2v4.4h-1.3v-4.4s0,0,0,0h-3.1s0,0,0,0v4.4h-1.3v-5.8h4.5c.8,0,1.4.6,1.4,1.4Z"/>
    <path d="M50.1,54.2v4.4h-4.5c-.8,0-1.4-.6-1.4-1.4v-2.2h4.6v-.9s0,0,0,0h-4.5v-1.3h4.5c.8,0,1.4.6,1.4,1.4ZM48.7,56.4h-3.3v.9s0,0,0,0h3.2v-.9Z"/>
    <path d="M56.9,54.2v4.4h-1.3v-4.4s0,0,0,0h-3.1s0,0,0,0v4.4h-1.3v-5.8h4.5c.8,0,1.4.6,1.4,1.4Z"/>
    <path d="M68.2,51.4v.3l-2.7,3.2,2.7,3.2v.3h-1.4l-2.1-2.5c-.7.8-1.4,1.7-2.1,2.5h-1.4v-.3l2.7-3.2-2.7-3.2v-.3h1.4l2.1,2.5c.7-.8,1.4-1.7,2.1-2.5h1.4Z"/>
    <path d="M75.1,52.8v4.4c0,.8-.6,1.4-1.4,1.4h-3.1c-.8,0-1.4-.6-1.4-1.4v-4.4h1.3v4.4s0,0,0,0h3.1s0,0,0,0v-4.4h1.3Z"/>
  </g>
</svg>