<svg width="90" height="91" viewBox="0 0 90 91" fill="none" xmlns="http://www.w3.org/2000/svg">
<g id="Temperature-Max--Streamline-Carbon" clip-path="url(#clip0_2026_348)">
<path id="Vector" d="M56.25 28.625H75.9375V34.25H56.25V28.625Z" fill="black"/>
<path id="Vector_2" d="M56.25 45.5H84.375V51.125H56.25V45.5Z" fill="black"/>
<path id="Vector_3" d="M56.25 62.375H75.9375V68H56.25V62.375Z" fill="black"/>
<path id="Vector_4" d="M28.125 57.2672V20.1875H22.5V57.2672C20.6235 57.9307 19.0419 59.2362 18.0348 60.9529C17.0277 62.6697 16.66 64.6873 16.9965 66.649C17.3331 68.6107 18.3523 70.3902 19.8741 71.6731C21.3959 72.956 23.3221 73.6597 25.3125 73.6597C27.3029 73.6597 29.2292 72.956 30.7509 71.6731C32.2727 70.3902 33.2919 68.6107 33.6285 66.649C33.9651 64.6873 33.5973 62.6697 32.5902 60.9529C31.5831 59.2362 30.0016 57.9307 28.125 57.2672Z" fill="black"/>
<path id="Vector_5" d="M84.375 11.75H36.4905C34.7261 9.38884 32.2621 7.64412 29.4489 6.76399C26.6358 5.88386 23.6168 5.91313 20.8212 6.84763C18.0257 7.78214 15.596 9.5743 13.8776 11.9692C12.1593 14.3642 11.2398 17.2399 11.25 20.1875V51.4366C8.53688 54.2057 6.70166 57.7142 5.97447 61.5221C5.24728 65.33 5.6605 69.2678 7.16231 72.8418C8.66412 76.4158 11.1877 79.4669 14.4165 81.6124C17.6454 83.758 21.4358 84.9025 25.3125 84.9025C29.1892 84.9025 32.9797 83.758 36.2085 81.6124C39.4374 79.4669 41.9609 76.4158 43.4627 72.8418C44.9645 69.2678 45.3777 65.33 44.6506 61.5221C43.9234 57.7142 42.0881 54.2057 39.375 51.4366V20.1875C39.3749 19.2428 39.2796 18.3006 39.0907 17.375H84.375V11.75ZM25.3125 79.25C22.4655 79.2538 19.6846 78.3923 17.3385 76.7796C14.9923 75.167 13.1917 72.8793 12.1753 70.2199C11.159 67.5606 10.9749 64.6551 11.6474 61.8887C12.32 59.1223 13.8174 56.6257 15.9413 54.7298L16.875 53.8908V20.1875C16.875 17.9497 17.764 15.8036 19.3463 14.2213C20.9286 12.6389 23.0747 11.75 25.3125 11.75C27.5503 11.75 29.6964 12.6389 31.2787 14.2213C32.8611 15.8036 33.75 17.9497 33.75 20.1875V53.8908L34.6838 54.7298C36.8076 56.6257 38.3051 59.1223 38.9776 61.8887C39.6502 64.6551 39.4661 67.5606 38.4497 70.2199C37.4333 72.8793 35.6327 75.167 33.2865 76.7796C30.9404 78.3923 28.1595 79.2538 25.3125 79.25Z" fill="black"/>
</g>
<defs>
<clipPath id="clip0_2026_348">
<rect width="90" height="90" fill="white" transform="translate(0 0.5)"/>
</clipPath>
</defs>
</svg>
