<svg width="116" height="292" viewBox="0 0 116 292" fill="none" xmlns="http://www.w3.org/2000/svg">
<path d="M76.25 248.25C76.2482 251.687 75.3017 255.057 73.5139 257.993C71.7261 260.929 69.1658 263.316 66.1129 264.895C63.0599 266.474 59.6317 267.183 56.2028 266.945C52.774 266.707 49.4765 265.532 46.6707 263.547C43.8649 261.562 41.6587 258.843 40.2932 255.689C38.9277 252.535 38.4555 249.066 38.9281 245.662C39.4008 242.257 40.8001 239.048 42.9732 236.385C45.1463 233.723 48.0095 231.708 51.25 230.562V210.75C51.25 209.092 51.9085 207.503 53.0806 206.331C54.2527 205.158 55.8424 204.5 57.5 204.5C59.1576 204.5 60.7473 205.158 61.9194 206.331C63.0915 207.503 63.75 209.092 63.75 210.75V230.562C67.4072 231.856 70.5734 234.251 72.8122 237.419C75.0509 240.587 76.252 244.371 76.25 248.25Z" fill="black"/>
<path d="M26.25 53.25C26.25 44.962 29.5424 37.0134 35.4029 31.1529C41.2634 25.2924 49.212 22 57.5 22C65.788 22 73.7366 25.2924 79.5971 31.1529C85.4576 37.0134 88.75 44.962 88.75 53.25V217.625C94.7792 223.779 98.8575 231.575 100.473 240.037C102.089 248.499 101.171 257.25 97.8338 265.192C94.4964 273.134 88.8886 279.914 81.7133 284.682C74.5381 289.45 66.1149 291.994 57.5 291.994C48.8851 291.994 40.4619 289.45 33.2867 284.682C26.1115 279.914 20.5036 273.134 17.1662 265.192C13.8289 257.25 12.9106 248.499 14.5266 240.037C16.1426 231.575 20.2208 223.779 26.25 217.625V53.25ZM57.5 34.5C52.5272 34.5 47.7581 36.4754 44.2418 39.9917C40.7255 43.5081 38.75 48.2772 38.75 53.25V223.087L36.6625 224.962C31.9447 229.182 28.6191 234.734 27.1259 240.884C25.6327 247.035 26.0423 253.494 28.3004 259.406C30.5585 265.319 34.5587 270.406 39.7717 273.996C44.9847 277.585 51.1646 279.507 57.4938 279.507C63.8229 279.507 70.0029 277.585 75.2158 273.996C80.4288 270.406 84.429 265.319 86.6872 259.406C88.9453 253.494 89.3548 247.035 87.8616 240.884C86.3684 234.734 83.0429 229.182 78.325 224.962L76.25 223.087V53.25C76.25 48.2772 74.2746 43.5081 70.7583 39.9917C67.242 36.4754 62.4728 34.5 57.5 34.5Z" fill="black"/>
</svg>
