<?xml version="1.0" encoding="UTF-8"?>
<svg id="Layer_1" xmlns="http://www.w3.org/2000/svg" xmlns:xlink="http://www.w3.org/1999/xlink" version="1.1" viewBox="0 0 155.9 169.4">
  <!-- Generator: Adobe Illustrator 29.0.1, SVG Export Plug-In . SVG Version: 2.1.0 Build 192)  -->
  <defs>
    <style>
      .st0, .st1 {
        fill: none;
      }

      .st1 {
        stroke: #000;
        stroke-linecap: round;
        stroke-linejoin: round;
        stroke-width: 5px;
      }

      .st2 {
        fill-rule: evenodd;
      }

      .st3 {
        clip-path: url(#clippath);
      }
    </style>
    <clipPath id="clippath">
      <rect class="st0" x="37.7" y="29.9" width="80.6" height="80.6"/>
    </clipPath>
  </defs>
  <path id="Vector" class="st1" d="M99.2,150.4c40-11.7,62.9-53.6,51.2-93.6C138.7,16.8,96.8-6.2,56.8,5.6,16.8,17.3-6.2,59.2,5.6,99.2c3.9,13.2,11,24.5,20.3,33.4l3.5,34.4,30.8-15.6c12.4,3,25.8,2.9,39-.9h0Z"/>
  <g class="st3">
    <g id="Spatula-Line--Streamline-Mingcute">
      <g id="Group">
        <path id="Vector-2" class="st2" d="M95.6,40.7c3.3-3.3,8.6-3.3,11.9,0s3.3,8.6,0,11.9l-7.1,7.1c-2.4,2.4-6,3.1-9,1.9l-5.7,5.7,1.9,2.8c4.4,6.7,3.6,15.5-2.1,21.2l-11.2,11.2c-2.6,2.6-6.9,2.6-9.5,0l-19-19c-2.6-2.6-2.6-6.9,0-9.5l11.2-11.2c5.7-5.7,14.5-6.5,21.2-2.1l2.8,1.9,5.7-5.7c-1.2-3-.6-6.6,1.9-9l7.1-7.1h-.1ZM102.7,45.5c-.7-.7-1.7-.7-2.4,0l-7.1,7.1c-.7.7-.7,1.7,0,2.4s1.7.7,2.4,0l7.1-7.1c.7-.7.7-1.7,0-2.4ZM74.4,66.2c-4-2.7-9.3-2.1-12.7,1.3l-11.2,11.2,19,19,11.2-11.2c3.4-3.4,3.9-8.7,1.3-12.7l-2.6-4c-.2-.4-.6-.7-.9-.9l-4-2.6h0ZM70.7,70.4c1.3,1.3,1.3,3.4,0,4.8l-7.1,7.1c-1.3,1.3-3.4,1.3-4.8,0s-1.3-3.4,0-4.8l7.1-7.1c1.3-1.3,3.4-1.3,4.8,0ZM77.8,77.5c1.3,1.3,1.3,3.4,0,4.8l-7.1,7.1c-1.3,1.3-3.4,1.3-4.8,0s-1.3-3.4,0-4.8l7.1-7.1c1.3-1.3,3.4-1.3,4.8,0Z"/>
      </g>
    </g>
  </g>
  <g>
    <path d="M64.9,117.6v1.6h-3.5v7.1h-1.6v-7.1h-3.5v-1.6h8.6Z"/>
    <path d="M70.4,119.3c.9,0,1.7.7,1.7,1.7v3.6c0,.9-.7,1.7-1.7,1.7h-3.8c-.9,0-1.7-.7-1.7-1.7v-3.6c0-.9.7-1.7,1.7-1.7h3.8ZM66.7,120.9s0,0,0,0v3.6s0,0,0,0h3.8s0,0,0,0v-3.6s0,0,0,0h-3.8Z"/>
    <path d="M78.4,119.3c.9,0,1.7.7,1.7,1.7v3.6c0,.9-.7,1.7-1.7,1.7h-3.8c-.9,0-1.7-.7-1.7-1.7v-3.6c0-.9.7-1.7,1.7-1.7h3.8ZM74.7,120.9s0,0,0,0v3.6s0,0,0,0h3.8s0,0,0,0v-3.6s0,0,0,0h-3.8Z"/>
    <path d="M82.6,117v7.6s0,0,0,0h1.4v1.6h-1.4c-.9,0-1.7-.7-1.7-1.7v-7.6h1.6Z"/>
    <path d="M92.2,119.3v.4l-2.8,3.1,2.8,3.1v.4h-1.7l-2.5-2.7h-1.2v2.7h-1.6v-9.2h1.6v5h1.2l2.5-2.7h1.7Z"/>
    <path d="M94.5,117v1.6h-1.6v-1.6h1.6ZM92.9,119.3h1.6v7h-1.6v-7Z"/>
    <path d="M97.3,120.9v3.7s0,0,0,0h2.6v1.6h-2.6c-.9,0-1.7-.7-1.7-1.7v-7.6h1.6v2.3h2.7v1.6h-2.7Z"/>
  </g>
</svg>