<?xml version="1.0" encoding="UTF-8"?>
<svg id="Layer_1" data-name="Layer 1" xmlns="http://www.w3.org/2000/svg" xmlns:xlink="http://www.w3.org/1999/xlink" viewBox="0 0 155.93 169.39">
  <defs>
    <style>
      .cls-1, .cls-2 {
        fill: none;
      }

      .cls-2 {
        stroke: #000;
        stroke-linecap: round;
        stroke-linejoin: round;
        stroke-width: 5px;
      }

      .cls-3 {
        fill-rule: evenodd;
      }

      .cls-4 {
        clip-path: url(#clippath);
      }
    </style>
    <clipPath id="clippath">
      <rect class="cls-1" x="37.7" y="29.92" width="80.56" height="80.56"/>
    </clipPath>
  </defs>
  <path id="Vector" class="cls-2" d="M99.16,150.37c39.99-11.71,62.91-53.62,51.2-93.6C138.66,16.78,96.75-6.15,56.76,5.56,16.77,17.27-6.15,59.18,5.56,99.16c3.86,13.19,11.01,24.52,20.29,33.37l3.47,34.36,30.81-15.61c12.45,3.04,25.85,2.95,39.04-.91Z"/>
  <g class="cls-4">
    <g id="Spatula-Line--Streamline-Mingcute">
      <g id="Group">
        <path id="Vector-2" data-name="Vector" class="cls-3" d="M95.58,40.73c3.28-3.28,8.59-3.28,11.87,0,3.28,3.28,3.28,8.59,0,11.87l-7.12,7.12c-2.43,2.43-5.99,3.06-9,1.88l-5.67,5.67,1.86,2.79c4.44,6.66,3.56,15.52-2.1,21.18l-11.2,11.2c-2.62,2.62-6.87,2.62-9.49,0l-18.99-18.99c-2.62-2.62-2.62-6.87,0-9.49l11.2-11.2c5.66-5.66,14.52-6.53,21.18-2.1l2.79,1.86,5.67-5.67c-1.18-3.01-.55-6.57,1.88-9l7.12-7.12ZM102.7,45.48c-.66-.66-1.72-.66-2.37,0l-7.12,7.12c-.66.66-.66,1.72,0,2.37.66.66,1.72.66,2.37,0l7.12-7.12c.66-.66.66-1.72,0-2.37ZM74.4,66.25c-3.99-2.66-9.31-2.14-12.71,1.26l-11.2,11.2,18.99,18.99,11.2-11.2c3.39-3.39,3.92-8.71,1.26-12.71l-2.64-3.97c-.25-.37-.56-.69-.93-.93l-3.97-2.64ZM70.66,70.4c1.31,1.31,1.31,3.44,0,4.75l-7.12,7.12c-1.31,1.31-3.44,1.31-4.75,0-1.31-1.31-1.31-3.44,0-4.75l7.12-7.12c1.31-1.31,3.44-1.31,4.75,0ZM77.78,77.52c1.31,1.31,1.31,3.44,0,4.75l-7.12,7.12c-1.31,1.31-3.44,1.31-4.75,0-1.31-1.31-1.31-3.44,0-4.75l7.12-7.12c1.31-1.31,3.44-1.31,4.75,0Z"/>
      </g>
    </g>
  </g>
</svg>